<?xml version="1.0" encoding="iso-8859-1"?>
<!-- Generator: Adobe Illustrator 19.0.0, SVG Export Plug-In . SVG Version: 6.00 Build 0)  -->
<svg version="1.1" id="Capa_1" xmlns="http://www.w3.org/2000/svg" xmlns:xlink="http://www.w3.org/1999/xlink" x="0px" y="0px"
	 viewBox="0 0 511.999 511.999" style="enable-background:new 0 0 511.999 511.999;" xml:space="preserve">
<g>
	<g>
		<path d="M320.636,72.963c-1.861-1.86-4.432-2.93-7.06-2.93c-2.64,0-5.22,1.07-7.079,2.93c-1.859,1.86-2.92,4.43-2.92,7.069
			c0,2.63,1.061,5.21,2.92,7.069c1.86,1.86,4.44,2.93,7.079,2.93c2.63,0,5.2-1.07,7.06-2.93c1.87-1.86,2.93-4.44,2.93-7.069
			C323.566,77.403,322.506,74.823,320.636,72.963z"/>
	</g>
</g>
<g>
	<g>
		<path d="M510.264,176.306l-80.29-117.926c-16.79-24.66-41.714-43.157-70.182-52.082c-28.465-8.927-59.489-7.972-87.353,2.685
			L27.67,102.602c-21.903,8.377-32.965,32.268-25.185,54.39c6.875,19.544,28.425,30.001,48.028,23.315l226.98-77.408
			c5.228-1.783,8.019-7.464,6.236-12.691c-1.783-5.228-7.468-8.02-12.691-6.237L44.058,161.38
			c-9.266,3.163-19.456-1.783-22.707-11.023c-4.16-11.826,1.754-24.597,13.463-29.075l244.769-93.619
			c49.182-18.81,104.226-1.551,133.861,41.974l49.314,72.431l-4.01-2.824c-4.514-3.179-10.752-2.098-13.933,2.417
			c-3.18,4.516-2.098,10.753,2.418,13.933l49.008,34.516c1.737,1.224,3.751,1.824,5.755,1.824c2.552,0,5.088-0.974,7.017-2.873
			C512.458,185.669,512.985,180.301,510.264,176.306z"/>
	</g>
</g>
<g>
	<g>
		<path d="M243.692,312.313c-5.815-9.139-14.842-15.466-25.415-17.814c-21.838-4.857-43.534,8.961-48.385,30.788
			c-2.351,10.574-0.441,21.431,5.374,30.569c5.815,9.138,14.842,15.466,25.416,17.815c2.951,0.656,5.896,0.971,8.802,0.971
			c18.584,0,35.388-12.884,39.583-31.76C251.417,332.309,249.507,321.452,243.692,312.313z M229.545,338.542
			c-2.459,11.064-13.459,18.063-24.524,15.607c-5.36-1.191-9.935-4.398-12.883-9.03c-2.948-4.632-3.916-10.133-2.724-15.493
			c2.127-9.569,10.642-16.099,20.061-16.099c1.472,0,2.968,0.16,4.463,0.492c5.359,1.191,9.934,4.398,12.882,9.029
			C229.768,327.681,230.736,333.183,229.545,338.542z"/>
	</g>
</g>
<g>
	<g>
		<path d="M440.903,494.696c-1.859-1.86-4.439-2.93-7.068-2.93c-2.63,0-5.21,1.069-7.069,2.93c-1.86,1.87-2.93,4.44-2.93,7.079
			c0,2.63,1.069,5.2,2.93,7.059c1.86,1.87,4.44,2.931,7.069,2.931c2.63,0,5.21-1.061,7.068-2.931c1.86-1.859,2.931-4.43,2.931-7.059
			C443.834,499.136,442.764,496.556,440.903,494.696z"/>
	</g>
</g>
<g>
	<g>
		<path d="M511.655,469.964L424.814,145.86c-0.313-1.167-0.834-2.268-1.539-3.249L362.7,58.348
			c-2.428-3.376-6.696-4.899-10.707-3.822c-4.018,1.076-6.947,4.526-7.361,8.663l-10.327,103.262
			c-0.12,1.202-0.021,2.417,0.291,3.583l0.329,1.227c-1.694-4.072-5.951-6.678-10.525-6.076c-5.476,0.719-9.33,5.742-8.611,11.216
			c2.258,17.182-2.302,34.203-12.838,47.927c-10.536,13.725-25.802,22.526-42.983,24.783c-0.603,0.079-1.181,0.219-1.741,0.397
			c6.041-4.561,11.517-9.945,16.249-16.11c13.79-17.96,19.757-40.232,16.804-62.711c-0.72-5.476-5.742-9.33-11.217-8.611
			c-5.476,0.719-9.331,5.742-8.611,11.216c2.259,17.182-2.301,34.203-12.837,47.928c-7.747,10.09-18.056,17.506-29.797,21.631
			c5.285-5.359,9.899-11.442,13.676-18.183c11.067-19.755,13.775-42.652,7.624-64.473c-1.498-5.315-7.021-8.409-12.337-6.911
			c-5.315,1.499-8.409,7.021-6.911,12.337c4.702,16.681,2.634,34.179-5.822,49.274c-8.352,14.909-21.964,25.716-38.369,30.51
			c-40.096,2.935-77.547,21.095-109.727,53.538c-2.773,2.796-5.414,5.605-7.929,8.403c2.099-4.518,4.413-9.101,6.967-13.681
			c27.005-48.402,66.715-72.941,118.035-72.941c0.154,0,0.306,0.001,0.462,0c5.509,0,9.983-4.459,9.998-9.972
			c0.015-5.523-4.45-10.011-9.972-10.026c-0.161,0-0.317,0-0.479,0c-58.286,0-105.138,28.761-135.509,83.196
			c-22.454,40.246-27.903,80.008-28.15,81.888c-0.567,4.244,1.657,8.535,5.754,10.409c1.348,0.616,2.76,0.908,4.151,0.908
			c3.79,0,7.416-2.167,9.1-5.836c0.139-0.304,14.251-30.682,42.198-58.695c16.152-16.19,33.366-28.273,51.542-36.226
			c-9.523,10.92-16.233,24.101-19.464,38.641c-5.096,22.926-0.957,46.462,11.65,66.274c5.697,8.952,12.825,16.645,21.03,22.874
			c-16.159-1.189-33.472-3.736-52.02-7.858c-5.383-1.194-10.731,2.201-11.93,7.592c-1.198,5.391,2.201,10.731,7.592,11.93
			c27.504,6.112,53.479,9.162,77.88,9.162c47.462,0,88.926-11.552,123.823-34.581c34.289-22.628,56.554-52.772,70.72-79.295
			l41.069,153.261c1.43,5.336,6.913,8.503,12.247,7.07c5.334-1.43,8.499-6.912,7.069-12.246L358.61,182.393
			c3.959,0.815,7.959,1.222,11.94,1.222c14.466,0,28.663-5.284,39.643-15.046l82.146,306.571c1.197,4.468,5.237,7.414,9.652,7.414
			c0.856,0,1.728-0.111,2.594-0.344C509.919,480.78,513.085,475.298,511.655,469.964z M318.812,236.508
			c13.773-17.94,19.741-40.181,16.811-62.635l19.079,71.197c-12.721,2.5-29.138,4.689-49.525,5.497
			C310.187,246.463,314.772,241.77,318.812,236.508z M275.784,348.82c-3.937,17.71-14.533,32.828-29.839,42.567
			c-15.307,9.74-33.489,12.937-51.201,9.001c-17.71-3.936-32.828-14.533-42.567-29.839c-9.741-15.307-12.938-33.489-9.001-51.2
			c7.026-31.619,35.165-53.193,66.294-53.193c4.864,0,9.805,0.527,14.746,1.625c17.709,3.936,32.827,14.533,42.567,29.839
			C276.522,312.927,279.72,331.11,275.784,348.82z M359.891,264.431l4.521,16.873c-12.544,30.18-35.842,68.969-77.784,94.989
			c3.913-7.176,6.855-14.936,8.678-23.135c5.095-22.925,0.957-46.461-11.651-66.273c-3.839-6.032-8.331-11.491-13.358-16.322
			C309.887,271.964,339.483,268.543,359.891,264.431z M355.008,160.389l6.89-68.894l40.414,56.219
			C391.436,162.356,371.75,167.63,355.008,160.389z"/>
	</g>
</g>
<g>
</g>
<g>
</g>
<g>
</g>
<g>
</g>
<g>
</g>
<g>
</g>
<g>
</g>
<g>
</g>
<g>
</g>
<g>
</g>
<g>
</g>
<g>
</g>
<g>
</g>
<g>
</g>
<g>
</g>
</svg>
