<?xml version="1.0" encoding="iso-8859-1"?>
<!-- Generator: Adobe Illustrator 18.0.0, SVG Export Plug-In . SVG Version: 6.00 Build 0)  -->
<!DOCTYPE svg PUBLIC "-//W3C//DTD SVG 1.1//EN" "http://www.w3.org/Graphics/SVG/1.1/DTD/svg11.dtd">
<svg version="1.1" id="Capa_1" xmlns="http://www.w3.org/2000/svg" xmlns:xlink="http://www.w3.org/1999/xlink" x="0px" y="0px"
	 viewBox="0 0 338.839 338.839" style="enable-background:new 0 0 338.839 338.839;" xml:space="preserve">
<g>
	<g>
		<g>
			<path d="M31.298,167.121c-0.396,0-0.794-0.031-1.19-0.095c-10.249-1.646-18.106-6.24-23.355-13.652
				c-9.292-13.121-6.335-30.19-6.205-30.91c0.331-1.83,1.331-3.472,2.805-4.606c37.783-29.085,94.051-56.636,143.35-70.188
				c16.661-4.581,33.463-6.903,49.938-6.903c44.968,0,80.703,17.34,102.762,31.886c22.04,14.534,35.014,29.018,37.318,31.685
				c1.311,1.351,2.118,3.193,2.118,5.224c0,4.127-3.333,7.475-7.454,7.5c-1.496-0.015-3.032-0.426-4.352-1.345
				c-15.626-10.881-63.811-22.532-110.634-22.532c-16.412,0-31.659,1.373-45.317,4.079c-39.271,7.782-134.81,68.086-135.77,68.695
				C34.104,166.721,32.711,167.121,31.298,167.121z M15.044,127.811c-0.221,3.92-0.002,11.366,3.996,16.957
				c2.446,3.42,5.997,5.694,10.806,6.908c16.038-10.025,99.631-61.461,138.32-69.127c14.617-2.896,30.845-4.365,48.233-4.365
				c28.41,0,56.075,3.836,78.226,9.341c-1.268-0.876-2.569-1.753-3.907-2.63c-20.267-13.288-53.039-29.127-94.077-29.127
				c-15.132,0-30.596,2.142-45.962,6.366C104.2,74.909,51.363,100.533,15.044,127.811z"/>
		</g>
		<g>
			<path d="M297.127,181.567c-3.429-1.267-7.271,0.125-9.096,3.292c-8.732,15.157-15.476,22.529-21.866,23.905
				c-2.635,0.566-5.646,0.176-9.079-1.171c3.5-6.88,5.472-15.027,5.87-24.388c0.176-4.138-3.036-7.636-7.175-7.812
				c-4.143-0.187-7.636,3.036-7.812,7.175c-0.283,6.645-1.545,12.376-3.763,17.16c-4.46-3.196-10.609-7.18-18.347-11.2
				c2.444-5.725,3.835-12.188,4.14-19.36c0.176-4.138-3.037-7.636-7.175-7.811c-4.153-0.196-7.636,3.037-7.812,7.175
				c-0.218,5.123-1.159,9.692-2.806,13.687c-7.002-2.864-14.841-5.514-23.473-7.639c1.332-4.295,2.116-8.894,2.324-13.785
				c0.176-4.138-3.037-7.636-7.175-7.812c-4.142-0.194-7.636,3.037-7.812,7.175c-0.182,4.283-0.977,8.078-2.234,11.452
				c-11.97-1.831-25.146-2.548-39.437-1.498c-74.859,5.509-97.549,43.615-109.844,80.196c-0.002,0.008-0.005,0.016-0.008,0.023
				c-0.009,0.027-0.019,0.054-0.027,0.081l0.002,0.003c-0.753,2.252-0.421,4.806,1.068,6.829
				c1.226,1.667,30.803,40.825,96.82,40.828c0.003,0,0.005,0,0.008,0c4.538,0,9.208-0.191,13.881-0.568
				c68.569-5.526,93.506-33.003,101.751-46.609c9.958,3.65,19.412,3.385,28.186-0.813c26.532-12.693,35.303-58.173,35.664-60.103
				C302.574,186.386,300.557,182.833,297.127,181.567z M181.813,188.348c7.584,1.686,14.531,3.826,20.803,6.19
				c-11.236,8.283-26.776,8.208-29.792,8.106c-1.756-0.46-3.511-0.894-5.264-1.289C173.358,197.723,178.122,193.367,181.813,188.348
				z M133.201,282.704c-19.274,0-34.954-15.681-34.954-34.955c0-19.273,15.68-34.954,34.954-34.954
				c19.274,0,34.954,15.68,34.954,34.954C168.155,267.023,152.475,282.704,133.201,282.704z M135.503,185.072
				c10.125-0.745,19.627-0.522,28.475,0.386c-10.665,9.012-25.663,11.675-33.473,12.462c-1.971,0.083-3.921,0.208-5.852,0.374
				c-0.014,0.001-0.029,0.002-0.043,0.003c-28.645,2.453-52.797,13.714-71.924,27.038
				C66.513,204.598,89.918,188.427,135.503,185.072z M90.602,221.72c-4.657,7.585-7.355,16.494-7.355,26.029
				c0,12.528,4.656,23.974,12.305,32.749c-28.834-5.765-46.083-19.798-53.542-27.289C54.427,241.67,70.782,229.629,90.602,221.72z
				 M212.614,257.146c-7.532,6.128-19.54,13.285-38.065,18.589c5.429-7.987,8.607-17.621,8.607-27.986
				c0-10.935-3.532-21.059-9.516-29.294c16.918,5.034,34.072,13.408,51.325,25.101C222.821,246.988,219.009,251.942,212.614,257.146
				z M210.582,217.473c-3.302-1.725-6.602-3.337-9.898-4.836c4.864-2.005,9.734-4.779,14.09-8.659c1.011-0.9,1.961-1.846,2.873-2.82
				c7.057,3.583,12.73,7.171,16.913,10.113C225.51,217.464,214.274,217.615,210.582,217.473z M259.766,236.552
				c-6.26,2.995-13.238,2.374-21.318-1.886c-2.49-1.773-4.98-3.476-7.47-5.123c5.284-1.743,10.798-4.472,15.77-8.735
				c0.367-0.314,0.714-0.646,1.068-0.971c7.729,3.842,14.829,5.027,21.506,3.591c1.698-0.366,3.331-0.892,4.906-1.562
				C270.297,228.325,265.484,233.816,259.766,236.552z"/>
			<g>
				<path d="M133.202,272.02c-13.383,0-24.271-10.888-24.271-24.271c0-13.383,10.888-24.271,24.271-24.271
					c13.383,0,24.271,10.888,24.271,24.271C157.472,261.133,146.585,272.02,133.202,272.02z M133.202,238.479
					c-5.112,0-9.271,4.159-9.271,9.271s4.159,9.271,9.271,9.271c5.112,0,9.271-4.159,9.271-9.271S138.314,238.479,133.202,238.479z"
					/>
			</g>
		</g>
	</g>
</g>
<g>
</g>
<g>
</g>
<g>
</g>
<g>
</g>
<g>
</g>
<g>
</g>
<g>
</g>
<g>
</g>
<g>
</g>
<g>
</g>
<g>
</g>
<g>
</g>
<g>
</g>
<g>
</g>
<g>
</g>
</svg>
